<svg width="100" height="92" viewBox="0 0 100 92" fill="none" xmlns="http://www.w3.org/2000/svg">
<path d="M50 0C22.3917 0 0 21.1172 0 47.1629C0 68.001 14.325 85.6793 34.1958 91.9165C36.6917 92.3528 37.5 90.8908 37.5 89.6488V80.8686C23.5917 83.722 20.6958 75.3034 20.6958 75.3034C18.4208 69.8522 15.1417 68.4019 15.1417 68.4019C10.6042 65.4739 15.4875 65.5368 15.4875 65.5368C20.5083 65.8669 23.15 70.3985 23.15 70.3985C27.6083 77.6065 34.8458 75.5235 37.7 74.3169C38.1458 71.271 39.4417 69.188 40.875 68.0128C29.7708 66.8141 18.0958 62.7699 18.0958 44.7026C18.0958 39.55 20.05 35.3447 23.2458 32.0433C22.7292 30.8524 21.0167 26.0536 23.7333 19.5608C23.7333 19.5608 27.9333 18.2953 37.4875 24.395C41.475 23.3496 45.75 22.8268 50 22.8072C54.25 22.8268 58.5292 23.3496 62.525 24.395C72.0708 18.2953 76.2625 19.5608 76.2625 19.5608C78.9833 26.0575 77.2708 30.8563 76.7542 32.0433C79.9625 35.3447 81.9 39.5539 81.9 44.7026C81.9 62.817 70.2042 66.8062 59.0708 67.9735C60.8625 69.4356 62.5 72.3046 62.5 76.7065V89.6488C62.5 90.9025 63.3 92.3764 65.8375 91.9126C85.6917 85.6675 100 67.9932 100 47.1629C100 21.1172 77.6125 0 50 0Z" fill="#0075FF"/>
</svg>
