<svg width="100" height="92" viewBox="0 0 100 92" fill="none" xmlns="http://www.w3.org/2000/svg">
<path d="M88.0952 0H11.9048C5.33333 0 0 4.90667 0 10.9524V81.0476C0 87.0933 5.33333 92 11.9048 92H88.0952C94.6667 92 100 87.0933 100 81.0476V10.9524C100 4.90667 94.6667 0 88.0952 0ZM30.9524 35.0476V76.6667H16.6667V35.0476H30.9524ZM16.6667 22.9343C16.6667 19.8676 19.5238 17.5238 23.8095 17.5238C28.0952 17.5238 30.7857 19.8676 30.9524 22.9343C30.9524 26.001 28.2857 28.4762 23.8095 28.4762C19.5238 28.4762 16.6667 26.001 16.6667 22.9343ZM83.3333 76.6667H69.0476C69.0476 76.6667 69.0476 56.3829 69.0476 54.7619C69.0476 50.3809 66.6667 46 60.7143 45.9124H60.5238C54.7619 45.9124 52.381 50.4248 52.381 54.7619C52.381 56.7552 52.381 76.6667 52.381 76.6667H38.0952V35.0476H52.381V40.6552C52.381 40.6552 56.9762 35.0476 66.2143 35.0476C75.6667 35.0476 83.3333 41.0276 83.3333 53.1409V76.6667Z" fill="#0075FF"/>
</svg>
