<svg width="36" height="37" viewBox="0 0 36 37" fill="none" xmlns="http://www.w3.org/2000/svg">
<path d="M18.0042 0C17.1936 0 16.5451 0.581784 16.5451 1.29957V24.8958L9.92364 19.0326C9.35194 18.5264 8.42186 18.5264 7.85016 19.0326C7.27846 19.5389 7.27846 20.3624 7.85016 20.8687L16.9718 28.9456C17.2448 29.1874 17.6202 29.3234 18.0042 29.3234C18.3967 29.3234 18.7636 29.1874 19.0367 28.9456L28.1583 20.8611C28.73 20.3549 28.73 19.5313 28.1583 19.0251C27.5866 18.5189 26.6565 18.5189 26.0848 19.0251L19.4633 24.8883V1.29957C19.4719 0.581784 18.8148 0 18.0042 0Z" fill="white"/>
<path d="M36 35.708C36 34.9902 35.343 34.4084 34.5324 34.4084H1.46765C0.657027 34.4084 0 34.9902 0 35.708C0 36.4258 0.657027 37 1.46765 37H34.5409C35.3516 37.0076 36 36.4258 36 35.708Z" fill="white"/>
</svg>
